<svg xmlns="http://www.w3.org/2000/svg" width="250" height="250" viewBox="0 0 250 250">
<!-- SVG created with Arrow, by QuiverAI (https://quiver.ai) -->
  <path d="m6.74 193.2h3.64v16.36h-3.64v-16.36z" fill="#143653"/>
  <path d="m28.95 193.2v16.36h-3.03l-8.26-10.05v10.05h-3.6v-16.36h3.06l8.24 10.05v-10.05h3.59z" fill="#143653"/>
  <path d="m33.05 193.2h7.62c5.81 0 9.34 3.44 9.34 8.18s-3.53 8.18-9.34 8.18h-7.62v-16.36zm7.43 13.31c3.66 0 5.83-1.98 5.83-5.13s-2.17-5.13-5.83-5.13h-3.79v10.26h3.79z" fill="#143653"/>
  <path d="m52.42 202.1v-8.94h3.64v8.68c0 3.24 1.35 4.86 4.1 4.86s4.1-1.62 4.1-4.86v-8.68h3.57v8.94c0 5.03-2.82 7.7-7.69 7.7s-7.72-2.67-7.72-7.7z" fill="#143653"/>
  <path d="m69.83 208 1.18-2.8c1.73 1.16 3.76 1.76 5.85 1.76 2.22 0 3.33-0.78 3.33-1.9 0-3.05-9.78-0.88-9.78-7.03 0-2.83 2.6-5.13 7.02-5.13 2.08 0 4.18 0.5 5.85 1.45l-1.16 2.85c-1.5-0.9-3.11-1.43-4.71-1.43-2.2 0-3.29 0.86-3.29 2 0 3 9.76 0.93 9.76 7 0 2.8-2.46 5.06-7.07 5.06-2.5 0-5.1-0.73-6.98-1.83z" fill="#143653"/>
  <path d="m89.89 196.2h-5.43v-3.03h14.76v3.03h-5.69v13.33h-3.64v-13.33z" fill="#143653"/>
  <path d="m111.2 209.6-3.38-4.74c-0.22 0.02-0.36 0.02-0.55 0.02h-2.5v4.72h-3.64v-16.36h6.57c4.7 0 8.03 2.23 8.03 5.87 0 2.5-1.38 4.37-3.73 5.37l3.9 5.12h-4.7zm-6.43-7.66h2.86c2.67 0 4.33-1.24 4.33-2.83 0-1.76-1.71-2.84-4.38-2.84h-2.81v5.67z" fill="#143653"/>
  <path d="m118.8 193.2h3.64v16.36h-3.64v-16.36z" fill="#143653"/>
  <path d="m137.3 205.8h-8.19l-1.55 3.76h-3.83l7.29-16.6h3.74l7.69 16.6h-3.83l-1.32-3.76zm-1.21-2.72-2.93-6.87-2.98 6.87h5.91z" fill="#143653"/>
  <path d="m144 193h3.64v13.57h8.87v3.03h-12.51v-16.6z" fill="#143653"/>
  <path d="m163.7 208 1.19-2.8c1.73 1.16 3.76 1.76 5.85 1.76 2.22 0 3.33-0.78 3.33-1.9 0-3.05-9.78-0.88-9.78-7.03 0-2.83 2.6-5.13 7.02-5.13 2.08 0 4.18 0.5 5.85 1.45l-1.17 2.85c-1.5-0.9-3.11-1.43-4.7-1.43-2.2 0-3.29 0.86-3.29 2 0 3 9.76 0.93 9.76 7 0 2.8-2.46 5.06-7.07 5.06-2.5 0-5.1-0.73-6.99-1.83z" fill="#143653"/>
  <path d="m179.5 201.4c0-5.24 3.55-8.47 8.4-8.47 3.31 0 5.81 1.24 7.26 3.7l-2.55 2.17c-1.21-2-2.74-2.71-4.64-2.71-3.17 0-4.81 2.35-4.81 5.31 0 3.03 1.79 5.36 4.86 5.36 2.28 0 3.65-1.07 4.79-3.33l2.64 2c-1.64 2.85-4.14 4.43-7.65 4.43-4.99 0-8.3-3.41-8.3-8.46z" fill="#143653"/>
  <path d="m208.9 205.8h-8.19l-1.55 3.76h-3.83l7.29-16.6h3.74l7.69 16.6h-3.83l-1.32-3.76zm-1.21-2.72-2.93-6.87-2.98 6.87h5.91z" fill="#143653"/>
  <path d="m215.6 193h3.64v13.57h8.53v3.03h-12.17v-16.6z" fill="#143653"/>
  <path d="m233.9 196v4h8.31v2.72h-8.31v3.98h9.35v2.84h-12.99v-16.36h12.75v2.82h-9.11z" fill="#143653"/>
  <path d="m53.35 218.1h6.91c5.36 0 8.61 3.19 8.61 7.6s-3.25 7.6-8.61 7.6h-6.91v-15.2zm6.77 12.38c3.39 0 5.39-1.84 5.39-4.78s-2-4.78-5.39-4.78h-3.41v9.56h3.41z" fill="#D77128"/>
  <path d="m80.27 229.8h-7.55l-1.43 3.47h-3.53l6.76-15.3h3.46l7.01 15.3h-3.53l-1.19-3.47zm-1.11-2.53-2.69-6.4-2.74 6.4h5.43z" fill="#D77128"/>
  <path d="m85.92 231.9 1.09-2.61c1.6 1.07 3.47 1.63 5.4 1.63 2.06 0 3.08-0.73 3.08-1.77 0-2.84-8.98-0.82-8.98-6.59 0-2.63 2.41-4.77 6.48-4.77 1.92 0 3.87 0.47 5.41 1.35l-1.07 2.64c-1.38-0.84-2.86-1.33-4.33-1.33-2.03 0-3.04 0.8-3.04 1.86 0 2.79 8.96 0.84 8.96 6.48 0 2.61-2.28 4.71-6.54 4.71-2.31 0-4.72-0.67-6.46-1.7z" fill="#D77128"/>
  <path d="m113.7 218.1v15.2h-3.36v-6.16h-6.78v6.16h-3.36v-15.2h3.36v6.32h6.78v-6.32h3.36z" fill="#D77128"/>
  <path d="m129.9 229c0 2.66-2.14 4.26-6.47 4.26h-6.72v-15.2h6.69c3.76 0 5.77 1.57 5.77 3.97 0 1.38-0.71 2.44-1.87 3.15 1.57 0.53 2.6 1.78 2.6 3.82zm-9.83-8.62v3.97h3.43c2.01 0 2.83-0.82 2.83-2.02 0-1.25-0.92-1.95-2.83-1.95h-3.43zm6.64 8.2c0-1.39-1.04-2.14-3.21-2.14h-3.43v4.34h3.43c2.17 0 3.21-0.8 3.21-2.2z" fill="#D77128"/>
  <path d="m131.1 225.7c0-4.82 3.56-7.92 8.34-7.92 4.8 0 8.36 3.1 8.36 7.85 0 4.76-3.56 7.86-8.36 7.86-4.78 0-8.34-3.1-8.34-7.79zm13.59-0.07c0-3.14-2.19-5.14-5.25-5.14-3.05 0-5.24 2-5.24 5.14 0 3.15 2.19 5.15 5.24 5.15 3.06 0 5.25-2 5.25-5.15z" fill="#D77128"/>
  <path d="m160.1 229.8h-7.55l-1.43 3.47h-3.27l6.76-15.3h3.24l7.01 15.3h-3.56l-1.2-3.47zm-1.11-2.53-2.69-6.4-2.74 6.4h5.43z" fill="#D77128"/>
  <path d="m175.8 233.3-3.1-4.41c-0.21 0.02-0.34 0.02-0.51 0.02h-2.3v4.39h-3.36v-15.2h6.1c4.33 0 7.07 2.09 7.07 5.45 0 2.33-1.25 4.07-3.39 5l3.58 4.75h-4.09zm-5.91-7.05h2.62c2.48 0 4.01-1.16 4.01-2.7 0-1.62-1.48-2.67-3.94-2.67h-2.69v5.37z" fill="#D77128"/>
  <path d="m182.3 218.1h6.37c5.8 0 9.04 3.19 9.04 7.6s-3.24 7.6-9.04 7.6h-6.37v-15.2zm6.22 12.38c3.66 0 5.83-1.84 5.83-4.78s-2.17-4.78-5.83-4.78h-2.84v9.56h2.84z" fill="#D77128"/>
  <path d="m204.8 32.81h-75.36v9.25h72.93c1.2 0 1.52 0.65 1.52 1.7v83.25c0 1.21-0.43 1.45-1.52 1.45h-72.93v43.54h46.95c0-5.16-3.13-7.34-5.99-7.34h-8.71c-2 0-2.8-0.8-3.49-3.35-1.11-4.03-3.1-13.65-3.1-13.65h49.7c5.79 0 7.9-5.58 7.9-8.07v-97.53c0-5.05-3.94-9.25-7.9-9.25zm-65.13 109.7c-3.77 0-5.08-2.73-5.08-4.78 0-2.93 2.05-4.74 4.46-4.74 3.34 0 4.81 2.32 4.81 4.74 0 2.41-2.04 4.78-4.19 4.78z" fill="#143653"/>
  <path d="m129.5 94.44 13.69-15.94c-0.18-0.67-0.28-1.37-0.28-2.11 0-4.83 3.08-6.62 5.94-6.62 4.65 0 6.51 3.12 6.51 6.09 0 0.61-0.08 1.21-0.24 1.79l8.93 7.97c0.9-0.45 1.91-0.71 2.99-0.71 0.52 0 1.02 0.07 1.51 0.19l16.31-22.44c-0.44-1.05-0.71-2.22-0.71-3.47 0-4.32 3.1-6.48 5.81-6.48 4.91 0 6.05 3.46 6.05 6.48 0 4.55-3.36 6.92-7.36 6.92l-16.5 22.08c0.63 1.2 1.01 2.58 1.01 4.06 0 4.46-2.93 5.91-6 5.91-3.9 0-6.2-2.8-6.7-6.14l-9.71-9.31c-0.74 0.38-1.56 0.61-2.44 0.61-0.72 0-1.41-0.16-2.05-0.44l-16.76 19v-7.44z" fill="#143653"/>
  <path d="m129.5 108 7.42-7.62v21.2h-7.42v-13.58z" fill="#C6CCD0"/>
  <path d="m142.6 93.41 6.69-6.69h2.41l4.46 4v31.2h-13.56v-28.51z" fill="#C6CCD0"/>
  <path d="m162.6 100.6c1.28 0.42 2.65 0.65 4.09 0.65 4.37 0 7.39-2.1 9.1-5.65v26.31h-13.19v-21.31z" fill="#C6CCD0"/>
  <path d="m182.9 81.18 7.21-12.76h5.43v53.5h-12.64v-40.74z" fill="#C6CCD0"/>
  <path d="m119 16c-5.16 0-7.4 7.13-7.4 9.41s0.7 3.83 1.4 5.25c0.44 0.9 0.23 1.6-0.47 2.5l-3.33 3.73c-0.6 0.7-1.2 0.62-2.07 0.56-1.4-0.1-2.8-0.14-4.2-0.14-14.59 0-21.65 9.93-35.1 9.93-1.34 0-2.7-0.17-3.6-0.53-2.04-0.84-2.89-3.49-6.25-3.49-4.94 0-6.55 3.94-6.55 5.84 0 4.55 3.8 7.62 10.05 8.62l-22.17 53.83h-3.56c3.08 12.76 14.31 23.01 30.46 23.01h0.06c16.15 0 27.38-10.9 29.79-23.01h-3.33l-21.75-53.86c12.11-1.31 18.22-8.14 28.85-8.14 1.9 0 3.8 0.28 5.67 0.77 1.55 0.45 1.83 4.18 3.63 5.85 1.65 1.58 2.17 2.6 2.17 3.88v91.74c0 1.9-0.87 2.42-2.67 2.42h-12.44c-4.36 0-7.29 2.55-8.43 7.99h-12.04c-4.59 0-7.29 3.76-7.29 9.84h56.42v-144.9c0.7-5.06-2.63-11.12-5.85-11.12zm-72.36 95.31 19.19-47.64 20.36 47.64h-39.55z" fill="#EA721A"/>
</svg>